<svg xmlns="http://www.w3.org/2000/svg" xmlns:xlink="http://www.w3.org/1999/xlink" width="40" zoomAndPan="magnify" viewBox="0 0 30 30.000001" height="40" preserveAspectRatio="xMidYMid meet" version="1.0"><defs><clipPath id="4921451eb0"><path d="M 0.484375 3.847656 L 29.484375 3.847656 L 29.484375 24.894531 L 0.484375 24.894531 Z M 0.484375 3.847656 " clip-rule="nonzero"/></clipPath></defs><g clip-path="url(#4921451eb0)"><path fill="#ffffff" d="M 28.859375 4.492188 C 28.539062 3.902344 27.796875 3.703125 27.257812 3.953125 C 26.640625 4.238281 26.777344 4.753906 26.894531 5.246094 C 27.351562 7.179688 26.90625 8.957031 26.359375 9.007812 C 25.757812 9.058594 25.1875 6.648438 24.828125 5.992188 C 24.636719 5.644531 24.363281 5.363281 23.933594 5.570312 C 23.535156 5.765625 23.515625 6.132812 23.648438 6.527344 C 23.839844 7.109375 24.816406 10.402344 23.726562 10.613281 C 22.578125 10.835938 22.070312 8.375 21.894531 8.070312 C 21.726562 7.78125 21.46875 7.574219 21.113281 7.734375 C 20.785156 7.882812 20.75 8.195312 20.835938 8.496094 C 20.96875 8.957031 21.902344 12.242188 20.949219 12.769531 C 20.109375 13.230469 19.296875 10.988281 19.078125 10.78125 C 18.863281 10.574219 18.628906 10.355469 18.296875 10.523438 C 17.957031 10.699219 18.03125 11.003906 18.109375 11.304688 C 18.265625 11.914062 18.414062 12.519531 18.238281 13.160156 C 17.757812 14.9375 15.441406 13.96875 14.996094 13.96875 C 14.550781 13.96875 12.234375 14.9375 11.75 13.160156 C 11.574219 12.519531 11.726562 11.914062 11.882812 11.304688 C 11.957031 11.003906 12.035156 10.699219 11.691406 10.523438 C 11.363281 10.355469 11.128906 10.574219 10.910156 10.78125 C 10.695312 10.988281 9.882812 13.230469 9.042969 12.769531 C 8.089844 12.242188 9.023438 8.957031 9.15625 8.496094 C 9.242188 8.195312 9.207031 7.882812 8.878906 7.734375 C 8.523438 7.574219 8.261719 7.78125 8.09375 8.070312 C 7.921875 8.375 7.414062 10.835938 6.261719 10.613281 C 5.171875 10.402344 6.152344 7.109375 6.34375 6.527344 C 6.476562 6.132812 6.457031 5.765625 6.054688 5.570312 C 5.628906 5.363281 5.351562 5.644531 5.160156 5.992188 C 4.800781 6.648438 4.230469 9.058594 3.628906 9.007812 C 3.085938 8.957031 2.640625 7.179688 3.09375 5.246094 C 3.210938 4.753906 3.351562 4.238281 2.730469 3.953125 C 2.195312 3.703125 1.453125 3.902344 1.132812 4.492188 C -0.121094 6.792969 0.238281 11.867188 3.40625 13.828125 C 5.890625 15.359375 11.351562 14.9375 11.414062 15.464844 C 11.484375 16.046875 8.289062 16.757812 7.855469 16.953125 C 7.257812 17.222656 7.273438 17.578125 7.816406 17.960938 C 9.394531 19.074219 11.300781 17.671875 11.523438 17.726562 C 11.785156 17.789062 11.589844 18.191406 11.71875 18.410156 C 11.765625 18.488281 12.886719 19.929688 12.40625 21.203125 C 12.191406 21.773438 12.140625 22.351562 12.332031 22.945312 C 12.6875 24.050781 13.777344 25.179688 14.996094 25.179688 C 16.210938 25.179688 17.304688 24.050781 17.660156 22.945312 C 17.847656 22.351562 17.800781 21.773438 17.585938 21.203125 C 17.105469 19.929688 18.222656 18.488281 18.269531 18.410156 C 18.402344 18.191406 18.207031 17.789062 18.46875 17.726562 C 18.6875 17.671875 20.597656 19.074219 22.171875 17.960938 C 22.714844 17.578125 22.730469 17.222656 22.132812 16.953125 C 21.699219 16.757812 18.507812 16.046875 18.578125 15.464844 C 18.640625 14.9375 24.101562 15.359375 26.582031 13.828125 C 29.753906 11.867188 30.113281 6.792969 28.859375 4.492188 Z M 28.859375 4.492188 " fill-opacity="1" fill-rule="nonzero"/></g></svg>