<svg xmlns="http://www.w3.org/2000/svg" xmlns:xlink="http://www.w3.org/1999/xlink" width="40" zoomAndPan="magnify" viewBox="0 0 30 30.000001" height="40" preserveAspectRatio="xMidYMid meet" version="1.0"><defs><clipPath id="962d82ca74"><path d="M 0.484375 3.847656 L 29.484375 3.847656 L 29.484375 24.894531 L 0.484375 24.894531 Z M 0.484375 3.847656 " clip-rule="nonzero"/></clipPath></defs><g clip-path="url(#962d82ca74)"><path fill="#c89728" d="M 28.804688 4.480469 C 28.484375 3.902344 27.742188 3.703125 27.207031 3.949219 C 26.589844 4.234375 26.726562 4.742188 26.84375 5.230469 C 27.296875 7.132812 26.855469 8.890625 26.3125 8.9375 C 25.710938 8.988281 25.140625 6.609375 24.78125 5.964844 C 24.589844 5.621094 24.316406 5.34375 23.890625 5.546875 C 23.488281 5.742188 23.46875 6.101562 23.601562 6.492188 C 23.792969 7.066406 24.769531 10.3125 23.683594 10.523438 C 22.535156 10.742188 22.027344 8.3125 21.855469 8.015625 C 21.6875 7.726562 21.429688 7.523438 21.070312 7.683594 C 20.746094 7.828125 20.707031 8.136719 20.796875 8.4375 C 20.929688 8.890625 21.859375 12.132812 20.910156 12.648438 C 20.070312 13.105469 19.261719 10.894531 19.042969 10.6875 C 18.828125 10.484375 18.589844 10.269531 18.265625 10.433594 C 17.921875 10.609375 17.996094 10.910156 18.074219 11.203125 C 18.230469 11.804688 18.378906 12.402344 18.207031 13.039062 C 17.722656 14.789062 15.410156 13.832031 14.96875 13.832031 C 14.523438 13.832031 12.210938 14.789062 11.730469 13.039062 C 11.554688 12.402344 11.703125 11.804688 11.859375 11.203125 C 11.9375 10.910156 12.011719 10.609375 11.671875 10.433594 C 11.34375 10.269531 11.109375 10.484375 10.890625 10.6875 C 10.675781 10.894531 9.863281 13.105469 9.027344 12.648438 C 8.074219 12.132812 9.003906 8.890625 9.136719 8.4375 C 9.226562 8.136719 9.191406 7.828125 8.863281 7.683594 C 8.503906 7.523438 8.246094 7.726562 8.082031 8.015625 C 7.90625 8.3125 7.398438 10.742188 6.253906 10.523438 C 5.164062 10.3125 6.140625 7.066406 6.332031 6.492188 C 6.464844 6.101562 6.445312 5.742188 6.046875 5.546875 C 5.617188 5.34375 5.34375 5.621094 5.152344 5.964844 C 4.792969 6.609375 4.222656 8.988281 3.625 8.9375 C 3.078125 8.890625 2.636719 7.132812 3.089844 5.230469 C 3.207031 4.742188 3.34375 4.234375 2.726562 3.949219 C 2.191406 3.703125 1.453125 3.902344 1.132812 4.480469 C -0.121094 6.753906 0.238281 11.761719 3.402344 13.695312 C 5.878906 15.207031 11.328125 14.789062 11.394531 15.3125 C 11.460938 15.886719 8.277344 16.585938 7.84375 16.777344 C 7.246094 17.042969 7.261719 17.394531 7.804688 17.773438 C 9.375 18.871094 11.28125 17.488281 11.5 17.539062 C 11.761719 17.601562 11.566406 18 11.699219 18.21875 C 11.746094 18.296875 12.863281 19.714844 12.382812 20.972656 C 12.167969 21.535156 12.121094 22.105469 12.308594 22.691406 C 12.664062 23.785156 13.753906 24.894531 14.96875 24.894531 C 16.179688 24.894531 17.273438 23.785156 17.625 22.691406 C 17.816406 22.105469 17.765625 21.535156 17.550781 20.972656 C 17.074219 19.714844 18.1875 18.296875 18.234375 18.21875 C 18.367188 18 18.171875 17.601562 18.433594 17.539062 C 18.652344 17.488281 20.558594 18.871094 22.132812 17.773438 C 22.671875 17.394531 22.6875 17.042969 22.09375 16.777344 C 21.660156 16.585938 18.472656 15.886719 18.542969 15.3125 C 18.605469 14.789062 24.054688 15.207031 26.53125 13.695312 C 29.695312 11.761719 30.054688 6.753906 28.804688 4.480469 Z M 28.804688 4.480469 " fill-opacity="1" fill-rule="nonzero"/></g></svg>